<?xml version="1.0" encoding="UTF-8"?>
<svg id="Layer_1" xmlns="http://www.w3.org/2000/svg" version="1.1" viewBox="0 0 742.27 331.79">
  <!-- Generator: Adobe Illustrator 29.6.1, SVG Export Plug-In . SVG Version: 2.1.1 Build 9)  -->
  <defs>
    <style>
      .st0 {
        fill: #fff;
      }
    </style>
  </defs>
  <path class="st0" d="M152.91,209.32h-86.85v-86.1c46.61-.31,87.55,39.09,86.85,86.1Z"/>
  <path class="st0" d="M543.34,209.69c-1.55,16.75-11.6,27.88-28.59,29.31-12.05,1.01-26.23-.85-35.95-8.51l10.09-14.44c4.49,1.34,8.17,5.34,12.84,6.31,15.12,3.14,25.25-3.64,23.05-19.71-1.16.13-1.14,1.7-2.18,2.63-10.1,9.02-28.87,5.67-37.14-4.51-11.27-13.9-8.68-39.04,7.18-48.45,9.66-5.73,23.13-4.52,31.44,3.15,1.02.94,1.03,2.5,2.18,2.64v-8.16h17.08v59.75h0ZM509.78,164.96c-3.27.36-6.96,2.56-9.13,5.01-10.44,11.73,2.38,29.49,16.99,22.93,15.73-7.07,8.37-29.71-7.86-27.94h0Z"/>
  <path class="st0" d="M424.56,144h-1.08c-5.99-7.77-27.75-7.98-26.41,4.84.78,7.46,18.02,9.95,23.99,12.41,14.12,5.81,19.24,17.95,14.26,32.46-6.55,19.07-34.18,21.72-50.29,14.7-1.95-.85-10.25-5.71-10.08-7.5l12.89-14.59c4.96,7.98,23.87,11.71,28.88,2.89,6.87-12.07-16.53-15.75-23.51-18.67-11.21-4.69-17.28-11.81-16.04-24.6,2.65-27.31,41.73-31.62,59.29-16.4l-11.89,14.45h-.01Z"/>
  <path class="st0" d="M218.07,121.21c13.69-1.4,27.24,1.33,36.51,12.03l-14.46,12.22c-7.59-8.69-22.33-8.96-31.16-2.18-19.57,15.02-10.95,52.66,15.55,51.19,7.22-.4,11.67-4.61,16.95-8.8l15.34,11.41c-5.53,7.34-13.87,12.33-22.95,14.15-64.19,12.82-76.36-83.8-15.78-90.01h0Z"/>
  <path class="st0" d="M615.34,210.06h-18.56v-36.74c0-.27-1.29-3.84-1.58-4.36-4.11-7.21-16.51-4.53-18.3,3.78-.19.87-.9,5.9-.9,6.52v30.8h-17.81v-60.12h17.07v8.16c1.98-1.2,2.66-3.21,4.51-4.77,8.74-7.35,25.91-6.12,32.01,4.24,1.38,2.34,3.56,10.23,3.56,12.77v39.71h0Z"/>
  <path class="st0" d="M665.81,210.06v-7.42c-7.96,10.19-27.21,11.92-36.02,2.24-5.65-6.21-5.89-18.45-.01-24.54,3.68-3.8,15.68-8.14,20.81-8.14h15.22c-1.55-15.18-18.31-12.48-26.99-4.51l-9.36-9.23c9.38-11.06,37.58-13.74,47.06-2.54,1.63,1.92,3.63,5.83,4.36,8.25s2,9.16,2,11.36v33.4l-1.11,1.11h-15.96v.02ZM660.46,183.56c-5.34.24-16.64.94-17.53,7.77-1.28,9.89,19.01,9.85,22.18-.16.58-1.82,1.76-6.97-.52-7.74-1.41-.47-2.8.06-4.13.12h0Z"/>
  <path class="st0" d="M321.4,132.87v17.07h15.59v14.85h-15.59v26.35c0,.45,1.97,2.92,2.58,3.36,3.5,2.52,9.26,1.57,13.01-.02v14.47c-7.57,3.81-23.6,3.27-29.72-2.94-1.09-1.1-4.43-7.07-4.43-8.19v-33.03h-11.88v-14.85h11.88v-17.07h18.56Z"/>
  <rect class="st0" x="694.76" y="117.28" width="17.81" height="92.78"/>
  <rect class="st0" x="26.72" y="156.62" width="25.98" height="52.7"/>
  <rect class="st0" x="264.99" y="149.94" width="18.56" height="60.12"/>
  <polygon class="st0" points="365.2 149.94 365.2 210.06 346.64 210.06 346.64 151.05 347.75 149.94 365.2 149.94"/>
  <polygon class="st0" points="467.63 210.06 449.07 210.06 449.07 149.94 466.52 149.94 467.63 151.05 467.63 210.06"/>
  <path class="st0" d="M36.92,122.65c22.43-3.85,19.44,31.65-1.45,24.85-12.55-4.09-10.8-22.74,1.45-24.85Z"/>
  <path class="st0" d="M353.12,121.16c15.22-3.15,17.85,17.87,6.36,20.45-16.15,3.63-18.57-17.93-6.36-20.45Z"/>
  <path class="st0" d="M455.55,121.16c9.12-1.9,16.62,6.71,12.23,15.19-5.23,10.1-21.3,5.95-20.22-6.09.34-3.82,4.25-8.33,8-9.11h-.01Z"/>
  <path class="st0" d="M271.47,121.16c9.12-1.9,16.62,6.71,12.23,15.19-5.41,10.44-21.33,5.27-20.14-6.01.42-3.94,3.98-8.37,7.91-9.18Z"/>
</svg>