<?xml version="1.0" encoding="UTF-8"?>
<svg id="Layer_1" data-name="Layer 1" xmlns="http://www.w3.org/2000/svg" viewBox="0 0 742.27 331.79">
  <defs>
    <style>
      .cls-1 {
        fill: #8721f3;
      }

      .cls-2 {
        fill: #8821f3;
      }

      .cls-3 {
        fill: #fefefe;
      }

      .cls-4 {
        fill: #15171a;
      }
    </style>
  </defs>
  <rect class="cls-3" width="742.27" height="331.79"/>
  <path class="cls-1" d="M66.06,210.06v-86.85c43.28-.76,81,32.77,86.75,75.44.21,1.6,1.65,11.41-.28,11.41h-86.47Z"/>
  <path class="cls-4" d="M543.34,210.43c-.55,5.44-3.31,13.46-6.7,17.8-11.95,15.33-43.45,13.62-57.83,2.26l10.08-14.44c5.48,2.18,9.27,5.99,15.49,6.63,14.92,1.53,21.96-4.84,20.4-20.03-1.16.13-1.14,1.7-2.18,2.63-8.92,7.97-23.82,6.25-32.94-.54-16.19-12.04-14.35-42.12,2.99-52.42,9.01-5.36,22.13-4.7,30.27,2.1,1.51,1.26,2,2.73,3.35,3.69v-8.16h17.08v60.49Z"/>
  <path class="cls-4" d="M398.83,152.68c3.64,4,16.78,6.33,22.23,8.57,12.96,5.33,18.22,15.1,15.17,28.92-5.06,22.96-35.78,26.45-53.73,17.06-2.53-1.32-9.06-4.84-6.96-7.97,2.56-3.81,9.3-8.92,12.29-12.94,5.08,7.88,23.83,11.8,28.88,2.9,6.96-12.25-17.36-15.9-24.56-19.11-12.82-5.71-18.14-15.7-13.81-29.66,7.01-22.62,42.19-25.02,58.11-10.91-3.16,5.6-8.61,9.24-12.27,14.46-5.55-4.43-11.29-6.12-18.47-5.13-6.37.88-12.04,8.16-6.89,13.81Z"/>
  <path class="cls-4" d="M218.07,121.21c13.69-1.4,27.23,1.33,36.51,12.03-1.69,1.65-13.53,12.12-14.47,12.1-.69-.02-6.84-5.8-11.93-6.47-23.64-3.1-35.59,20.35-27.16,40.52,7.05,16.86,29.1,20.79,39.84,5.45l15.95,12.23c-21.23,26.87-68.73,15.85-76.82-17.44-6.77-27.88,8.33-55.38,38.08-58.43Z"/>
  <path class="cls-4" d="M615.34,210.06h-18.56v-36.74c0-.72-2.11-5.19-2.92-5.98-5.87-5.79-15.49-1.28-16.94,6.16-2.24,11.44-.19,24.87-.92,36.57h-17.81v-60.12h17.07c.37,0-.12,6.24.75,7.42,7.86-11.34,28.52-12.09,35.77.22,1.19,2.03,3.56,9.93,3.56,12.03v40.45Z"/>
  <path class="cls-4" d="M665.81,210.06c-.29-.29.22-6.18,0-7.42-7.99,10.22-27.16,11.97-36.01,2.24-5.65-6.21-5.89-18.45,0-24.54,3.89-4.03,15.36-8.14,20.81-8.14h15.22c-1.23-14.97-19.41-12.89-27.09-3.72-1.11-3.12-8.44-7.88-9.26-10.03-.45-1.18,4.8-3.73,5.7-4.65,14.58-7.6,39.94-8.84,45.72,10.39.71,2.34,2,9.16,2,11.36v33.4c0,.08-1.03,1.11-1.11,1.11-2.25,0-15.39.56-15.96,0Z"/>
  <path class="cls-4" d="M321.4,132.87v17.07h15.59v14.85h-15.59v26.35c0,4.82,12.27,5.89,15.59,3.34v14.47c0,3.16-17.94,2.22-20.82,1.52-5.36-1.3-13.33-6.53-13.33-12.65v-33.03h-11.88v-14.85h11.88v-17.07h18.56Z"/>
  <path class="cls-4" d="M712.58,117.28v92.78h-17.44c-.08,0-1.11-1.03-1.11-1.11v-91.67h18.56Z"/>
  <path class="cls-2" d="M53.44,156.62v52.33c0,.08-1.03,1.11-1.11,1.11h-25.61v-53.44h26.72Z"/>
  <rect class="cls-4" x="264.99" y="149.94" width="18.56" height="60.12"/>
  <rect class="cls-4" x="346.64" y="149.94" width="18.56" height="60.12"/>
  <rect class="cls-4" x="449.07" y="149.94" width="18.56" height="60.12"/>
  <path class="cls-2" d="M39.2,121.9c16.82-.88,18.91,25.14,1.99,26.56-18.17,1.53-19.76-25.63-1.99-26.56Z"/>
  <path class="cls-4" d="M353.12,121.16c15.74-3.25,18.56,19.63,3.96,21.02-13.3,1.26-16.08-18.51-3.96-21.02Z"/>
  <path class="cls-4" d="M455.55,121.17c17.2-3.19,17.43,21.7,2.16,21.08-12.62-.51-13.32-19.01-2.16-21.08Z"/>
  <path class="cls-4" d="M266.73,139.28c-10.81-10.09,6.22-26.02,15.72-14.61,8.46,10.16-5.97,23.71-15.72,14.61Z"/>
  <path class="cls-3" d="M522.29,169.5c13.18,13.33-7.56,34.52-21.29,20.18-13.07-13.66,7.41-34.22,21.29-20.18Z"/>
  <path class="cls-3" d="M661.21,183.55c2.83-.24,4.26-1.07,4.65,2.37,1.68,14.63-22.36,16.59-23.04,6.66-.57-8.3,12.78-8.56,18.39-9.03Z"/>
</svg>